<mxfile host="app.diagrams.net" agent="Mozilla/5.0 (Windows NT 10.0; Win64; x64) AppleWebKit/537.36 (KHTML, like Gecko) Chrome/140.0.0.0 Safari/537.36" version="28.1.2">
  <diagram name="Página-1" id="Eytw51BX1puJLGDIzHEO">
    <mxGraphModel dx="1426" dy="777" grid="1" gridSize="10" guides="1" tooltips="1" connect="1" arrows="1" fold="1" page="1" pageScale="1" pageWidth="827" pageHeight="1169" math="0" shadow="0">
      <root>
        <mxCell id="0" />
        <mxCell id="1" parent="0" />
        <mxCell id="t-f9uYnRFhcHyQK6Fd40-14" style="edgeStyle=orthogonalEdgeStyle;rounded=0;orthogonalLoop=1;jettySize=auto;html=1;entryX=0.5;entryY=0;entryDx=0;entryDy=0;" edge="1" parent="1" source="t-f9uYnRFhcHyQK6Fd40-3" target="t-f9uYnRFhcHyQK6Fd40-11">
          <mxGeometry relative="1" as="geometry" />
        </mxCell>
        <mxCell id="t-f9uYnRFhcHyQK6Fd40-3" value="" style="ellipse;html=1;shape=endState;fillColor=#000000;strokeColor=#ff0000;" vertex="1" parent="1">
          <mxGeometry x="99" y="170" width="30" height="30" as="geometry" />
        </mxCell>
        <mxCell id="t-f9uYnRFhcHyQK6Fd40-5" value="Estado Inicial" style="text;html=1;align=center;verticalAlign=middle;resizable=0;points=[];autosize=1;strokeColor=none;fillColor=none;" vertex="1" parent="1">
          <mxGeometry x="70" y="140" width="90" height="30" as="geometry" />
        </mxCell>
        <mxCell id="t-f9uYnRFhcHyQK6Fd40-6" value="Diagrama de Estados - Objeto Urna&amp;nbsp;" style="text;html=1;align=center;verticalAlign=middle;resizable=0;points=[];autosize=1;strokeColor=none;fillColor=none;fontStyle=3;fontSize=30;" vertex="1" parent="1">
          <mxGeometry x="160" y="70" width="510" height="50" as="geometry" />
        </mxCell>
        <mxCell id="t-f9uYnRFhcHyQK6Fd40-9" value="Urna Desconfigurada" style="html=1;whiteSpace=wrap;" vertex="1" parent="1">
          <mxGeometry x="160" y="165" width="100" height="40" as="geometry" />
        </mxCell>
        <mxCell id="t-f9uYnRFhcHyQK6Fd40-11" value="Cadastrando" style="swimlane;fontStyle=1;align=center;verticalAlign=middle;childLayout=stackLayout;horizontal=1;startSize=30;horizontalStack=0;resizeParent=0;resizeLast=1;container=0;fontColor=#000000;collapsible=0;rounded=1;arcSize=30;strokeColor=#ff0000;fillColor=#ffffc0;swimlaneFillColor=#ffffc0;dropTarget=0;fontSize=10;" vertex="1" parent="1">
          <mxGeometry x="53.5" y="260" width="121.5" height="50" as="geometry" />
        </mxCell>
        <mxCell id="t-f9uYnRFhcHyQK6Fd40-12" value="CadastrarCandidato()" style="text;html=1;strokeColor=none;fillColor=none;align=center;verticalAlign=middle;spacingLeft=4;spacingRight=4;whiteSpace=wrap;overflow=hidden;rotatable=0;fontColor=#000000;fontSize=10;" vertex="1" parent="t-f9uYnRFhcHyQK6Fd40-11">
          <mxGeometry y="30" width="121.5" height="20" as="geometry" />
        </mxCell>
        <mxCell id="t-f9uYnRFhcHyQK6Fd40-15" value="Condition" style="rhombus;whiteSpace=wrap;html=1;fontColor=#000000;fillColor=#ffffc0;strokeColor=#ff0000;" vertex="1" parent="1">
          <mxGeometry x="80" y="310" width="80" height="40" as="geometry" />
        </mxCell>
        <mxCell id="t-f9uYnRFhcHyQK6Fd40-16" value="Erro em algum&lt;div&gt;&amp;nbsp;candidato&lt;/div&gt;" style="edgeStyle=orthogonalEdgeStyle;html=1;align=left;verticalAlign=bottom;endArrow=open;endSize=8;strokeColor=#ff0000;rounded=0;" edge="1" source="t-f9uYnRFhcHyQK6Fd40-15" parent="1">
          <mxGeometry x="-0.4029" y="10" relative="1" as="geometry">
            <mxPoint x="260" y="330" as="targetPoint" />
            <mxPoint as="offset" />
          </mxGeometry>
        </mxCell>
        <mxCell id="t-f9uYnRFhcHyQK6Fd40-17" value="&amp;nbsp;Todos Candidatos&lt;div&gt;Cadastrados&lt;/div&gt;" style="edgeStyle=orthogonalEdgeStyle;html=1;align=left;verticalAlign=top;endArrow=open;endSize=8;strokeColor=#ff0000;rounded=0;" edge="1" source="t-f9uYnRFhcHyQK6Fd40-15" parent="1">
          <mxGeometry x="-1" relative="1" as="geometry">
            <mxPoint x="120" y="410" as="targetPoint" />
          </mxGeometry>
        </mxCell>
        <mxCell id="t-f9uYnRFhcHyQK6Fd40-23" style="edgeStyle=orthogonalEdgeStyle;rounded=0;orthogonalLoop=1;jettySize=auto;html=1;" edge="1" parent="1" source="t-f9uYnRFhcHyQK6Fd40-18" target="t-f9uYnRFhcHyQK6Fd40-21">
          <mxGeometry relative="1" as="geometry" />
        </mxCell>
        <mxCell id="t-f9uYnRFhcHyQK6Fd40-18" value="Urna Configurada" style="html=1;whiteSpace=wrap;" vertex="1" parent="1">
          <mxGeometry x="70" y="410" width="100" height="40" as="geometry" />
        </mxCell>
        <mxCell id="t-f9uYnRFhcHyQK6Fd40-19" value="Urna Desconfigurada" style="html=1;whiteSpace=wrap;" vertex="1" parent="1">
          <mxGeometry x="260" y="310" width="100" height="40" as="geometry" />
        </mxCell>
        <mxCell id="t-f9uYnRFhcHyQK6Fd40-21" value="Autorizando Eleitor" style="swimlane;fontStyle=1;align=center;verticalAlign=middle;childLayout=stackLayout;horizontal=1;startSize=30;horizontalStack=0;resizeParent=0;resizeLast=1;container=0;fontColor=#000000;collapsible=0;rounded=1;arcSize=50;strokeColor=#ff0000;fillColor=#ffffc0;swimlaneFillColor=#ffffc0;dropTarget=0;fontSize=10;" vertex="1" parent="1">
          <mxGeometry x="58.5" y="500" width="121.5" height="50" as="geometry" />
        </mxCell>
        <mxCell id="t-f9uYnRFhcHyQK6Fd40-22" value="AutorizarEleitor()" style="text;html=1;strokeColor=none;fillColor=none;align=center;verticalAlign=middle;spacingLeft=4;spacingRight=4;whiteSpace=wrap;overflow=hidden;rotatable=0;fontColor=#000000;fontSize=10;" vertex="1" parent="t-f9uYnRFhcHyQK6Fd40-21">
          <mxGeometry y="30" width="121.5" height="20" as="geometry" />
        </mxCell>
        <mxCell id="t-f9uYnRFhcHyQK6Fd40-25" value="Urna Não Pronta" style="html=1;whiteSpace=wrap;" vertex="1" parent="1">
          <mxGeometry x="260" y="550" width="100" height="40" as="geometry" />
        </mxCell>
        <mxCell id="t-f9uYnRFhcHyQK6Fd40-29" value="Condition" style="rhombus;whiteSpace=wrap;html=1;fontColor=#000000;fillColor=#ffffc0;strokeColor=#ff0000;" vertex="1" parent="1">
          <mxGeometry x="80" y="550" width="80" height="40" as="geometry" />
        </mxCell>
        <mxCell id="t-f9uYnRFhcHyQK6Fd40-30" value="Eleitor&amp;nbsp;&lt;div&gt;Não Autorizado&lt;/div&gt;" style="edgeStyle=orthogonalEdgeStyle;html=1;align=center;verticalAlign=bottom;endArrow=open;endSize=8;strokeColor=#ff0000;rounded=0;" edge="1" source="t-f9uYnRFhcHyQK6Fd40-29" parent="1">
          <mxGeometry x="0.4048" y="10" relative="1" as="geometry">
            <mxPoint x="260" y="570" as="targetPoint" />
            <mxPoint as="offset" />
          </mxGeometry>
        </mxCell>
        <mxCell id="t-f9uYnRFhcHyQK6Fd40-31" value="Eleitor&amp;nbsp;&lt;div&gt;Autorizado&lt;/div&gt;" style="edgeStyle=orthogonalEdgeStyle;html=1;align=center;verticalAlign=top;endArrow=open;endSize=8;strokeColor=#ff0000;rounded=0;" edge="1" source="t-f9uYnRFhcHyQK6Fd40-29" parent="1">
          <mxGeometry x="-0.9994" y="40" relative="1" as="geometry">
            <mxPoint x="120" y="650" as="targetPoint" />
            <mxPoint as="offset" />
          </mxGeometry>
        </mxCell>
        <mxCell id="t-f9uYnRFhcHyQK6Fd40-39" style="edgeStyle=orthogonalEdgeStyle;rounded=0;orthogonalLoop=1;jettySize=auto;html=1;" edge="1" parent="1" source="t-f9uYnRFhcHyQK6Fd40-32" target="t-f9uYnRFhcHyQK6Fd40-35">
          <mxGeometry relative="1" as="geometry" />
        </mxCell>
        <mxCell id="t-f9uYnRFhcHyQK6Fd40-32" value="Liberando Urna" style="swimlane;fontStyle=1;align=center;verticalAlign=middle;childLayout=stackLayout;horizontal=1;startSize=30;horizontalStack=0;resizeParent=0;resizeLast=1;container=0;fontColor=#000000;collapsible=0;rounded=1;arcSize=50;strokeColor=#ff0000;fillColor=#ffffc0;swimlaneFillColor=#ffffc0;dropTarget=0;fontSize=10;" vertex="1" parent="1">
          <mxGeometry x="59.25" y="650" width="121.5" height="50" as="geometry" />
        </mxCell>
        <mxCell id="t-f9uYnRFhcHyQK6Fd40-33" value="LiberarUrna()" style="text;html=1;strokeColor=none;fillColor=none;align=center;verticalAlign=middle;spacingLeft=4;spacingRight=4;whiteSpace=wrap;overflow=hidden;rotatable=0;fontColor=#000000;fontSize=10;" vertex="1" parent="t-f9uYnRFhcHyQK6Fd40-32">
          <mxGeometry y="30" width="121.5" height="20" as="geometry" />
        </mxCell>
        <mxCell id="t-f9uYnRFhcHyQK6Fd40-35" value="Urna Pronta" style="html=1;whiteSpace=wrap;" vertex="1" parent="1">
          <mxGeometry x="260" y="655" width="100" height="40" as="geometry" />
        </mxCell>
        <mxCell id="t-f9uYnRFhcHyQK6Fd40-40" value="Votando" style="swimlane;fontStyle=1;align=center;verticalAlign=middle;childLayout=stackLayout;horizontal=1;startSize=30;horizontalStack=0;resizeParent=0;resizeLast=1;container=0;fontColor=#000000;collapsible=0;rounded=1;arcSize=50;strokeColor=#ff0000;fillColor=#ffffc0;swimlaneFillColor=#ffffc0;dropTarget=0;fontSize=10;" vertex="1" parent="1">
          <mxGeometry x="430" y="656" width="121.5" height="50" as="geometry" />
        </mxCell>
        <mxCell id="t-f9uYnRFhcHyQK6Fd40-41" value="RealizarVoto()" style="text;html=1;strokeColor=none;fillColor=none;align=center;verticalAlign=middle;spacingLeft=4;spacingRight=4;whiteSpace=wrap;overflow=hidden;rotatable=0;fontColor=#000000;fontSize=10;" vertex="1" parent="t-f9uYnRFhcHyQK6Fd40-40">
          <mxGeometry y="30" width="121.5" height="20" as="geometry" />
        </mxCell>
        <mxCell id="t-f9uYnRFhcHyQK6Fd40-42" value="Urna Não Pronta" style="html=1;whiteSpace=wrap;" vertex="1" parent="1">
          <mxGeometry x="590" y="510" width="100" height="40" as="geometry" />
        </mxCell>
        <mxCell id="t-f9uYnRFhcHyQK6Fd40-43" value="Condition" style="rhombus;whiteSpace=wrap;html=1;fontColor=#000000;fillColor=#ffffc0;strokeColor=#ff0000;" vertex="1" parent="1">
          <mxGeometry x="450.75" y="616" width="80" height="40" as="geometry" />
        </mxCell>
        <mxCell id="t-f9uYnRFhcHyQK6Fd40-44" value="Erro no sistema" style="edgeStyle=orthogonalEdgeStyle;html=1;align=center;verticalAlign=bottom;endArrow=open;endSize=8;strokeColor=#ff0000;rounded=0;entryX=0.5;entryY=1;entryDx=0;entryDy=0;" edge="1" parent="1" source="t-f9uYnRFhcHyQK6Fd40-43" target="t-f9uYnRFhcHyQK6Fd40-42">
          <mxGeometry x="0.4048" y="10" relative="1" as="geometry">
            <mxPoint x="631.5" y="726" as="targetPoint" />
            <mxPoint as="offset" />
          </mxGeometry>
        </mxCell>
        <mxCell id="t-f9uYnRFhcHyQK6Fd40-45" value="Todos os votos&lt;br&gt;&amp;nbsp;completos" style="edgeStyle=orthogonalEdgeStyle;html=1;align=center;verticalAlign=top;endArrow=open;endSize=8;strokeColor=#ff0000;rounded=0;entryX=0.5;entryY=1;entryDx=0;entryDy=0;" edge="1" parent="1" source="t-f9uYnRFhcHyQK6Fd40-43" target="t-f9uYnRFhcHyQK6Fd40-47">
          <mxGeometry x="0.2986" y="20" relative="1" as="geometry">
            <mxPoint x="490" y="530" as="targetPoint" />
            <mxPoint x="-1" as="offset" />
          </mxGeometry>
        </mxCell>
        <mxCell id="t-f9uYnRFhcHyQK6Fd40-46" style="edgeStyle=orthogonalEdgeStyle;rounded=0;orthogonalLoop=1;jettySize=auto;html=1;entryX=0.001;entryY=0.394;entryDx=0;entryDy=0;entryPerimeter=0;" edge="1" parent="1" source="t-f9uYnRFhcHyQK6Fd40-35" target="t-f9uYnRFhcHyQK6Fd40-40">
          <mxGeometry relative="1" as="geometry" />
        </mxCell>
        <mxCell id="t-f9uYnRFhcHyQK6Fd40-47" value="Urna Desabilitada" style="html=1;whiteSpace=wrap;" vertex="1" parent="1">
          <mxGeometry x="440.75" y="450" width="100" height="40" as="geometry" />
        </mxCell>
        <mxCell id="t-f9uYnRFhcHyQK6Fd40-48" value="" style="ellipse;html=1;shape=endState;fillColor=#000000;strokeColor=#ff0000;" vertex="1" parent="1">
          <mxGeometry x="610" y="200" width="30" height="30" as="geometry" />
        </mxCell>
        <mxCell id="t-f9uYnRFhcHyQK6Fd40-49" value="Estado Final" style="text;html=1;align=center;verticalAlign=middle;resizable=0;points=[];autosize=1;strokeColor=none;fillColor=none;" vertex="1" parent="1">
          <mxGeometry x="580" y="170" width="90" height="30" as="geometry" />
        </mxCell>
        <mxCell id="t-f9uYnRFhcHyQK6Fd40-54" value="Condition" style="rhombus;whiteSpace=wrap;html=1;fontColor=#000000;fillColor=#ffffc0;strokeColor=#ff0000;" vertex="1" parent="1">
          <mxGeometry x="451" y="410" width="80" height="40" as="geometry" />
        </mxCell>
        <mxCell id="t-f9uYnRFhcHyQK6Fd40-55" value="Sessão finalizada" style="edgeStyle=orthogonalEdgeStyle;html=1;align=left;verticalAlign=bottom;endArrow=open;endSize=8;strokeColor=#ff0000;rounded=0;entryX=0.5;entryY=1;entryDx=0;entryDy=0;" edge="1" source="t-f9uYnRFhcHyQK6Fd40-54" parent="1" target="t-f9uYnRFhcHyQK6Fd40-48">
          <mxGeometry x="0.1837" y="45" relative="1" as="geometry">
            <mxPoint x="631" y="430" as="targetPoint" />
            <mxPoint as="offset" />
          </mxGeometry>
        </mxCell>
        <mxCell id="t-f9uYnRFhcHyQK6Fd40-56" value="Sessão em andamento" style="edgeStyle=orthogonalEdgeStyle;html=1;align=left;verticalAlign=top;endArrow=open;endSize=8;strokeColor=#ff0000;rounded=0;entryX=1;entryY=0.5;entryDx=0;entryDy=0;" edge="1" source="t-f9uYnRFhcHyQK6Fd40-54" parent="1" target="t-f9uYnRFhcHyQK6Fd40-18">
          <mxGeometry x="0.1459" relative="1" as="geometry">
            <mxPoint x="491" y="510" as="targetPoint" />
            <mxPoint as="offset" />
          </mxGeometry>
        </mxCell>
        <mxCell id="t-f9uYnRFhcHyQK6Fd40-57" value="Urna Desconfigurada" style="html=1;whiteSpace=wrap;" vertex="1" parent="1">
          <mxGeometry x="670" y="195" width="100" height="40" as="geometry" />
        </mxCell>
      </root>
    </mxGraphModel>
  </diagram>
</mxfile>
